<svg width="129" height="27" viewBox="0 0 129 27" fill="none" xmlns="http://www.w3.org/2000/svg">
<rect x="0.00012207" y="14.2831" width="19.8793" height="10.7042" rx="5.35211" fill="#75DA9F"/>
<rect x="20.9717" y="14.2831" width="8.51968" height="10.7042" rx="4.25984" fill="#99BAF8"/>
<rect x="0.00012207" y="1.61292" width="10.7042" height="10.7042" rx="5.35211" fill="#FEE831"/>
<rect x="12.0149" y="1.61292" width="17.4763" height="10.7042" rx="5.35211" fill="#CCB8FF"/>
<path d="M57.9226 0.0921588C60.9024 0.0921588 63.2679 1.09056 65.0189 3.08736C66.77 5.05344 67.6455 7.72608 67.6455 11.1053V26.1734H58.6138V12.3034C58.6138 10.8288 58.2298 9.6768 57.4618 8.84736C56.6938 7.9872 55.6647 7.55712 54.3744 7.55712C53.0228 7.55712 51.9629 7.9872 51.1949 8.84736C50.4269 9.6768 50.0429 10.8288 50.0429 12.3034V26.1734H41.0112V0.322559H50.0429V4.00896C50.8416 2.8416 51.9168 1.90464 53.2685 1.19808C54.6202 0.460799 56.1716 0.0921588 57.9226 0.0921588Z" fill="white"/>
<path d="M84.6281 26.496C82.0476 26.496 79.7283 25.9584 77.67 24.8832C75.6425 23.808 74.0451 22.272 72.8777 20.2752C71.7104 18.2784 71.1267 15.9283 71.1267 13.225C71.1267 10.5523 71.7104 8.2176 72.8777 6.2208C74.0758 4.224 75.6886 2.688 77.7161 1.6128C79.7744 0.537599 82.0937 0 84.6742 0C87.2547 0 89.5587 0.537599 91.5862 1.6128C93.6444 2.688 95.2572 4.224 96.4246 6.2208C97.6227 8.2176 98.2217 10.5523 98.2217 13.225C98.2217 15.8976 97.6227 18.2477 96.4246 20.2752C95.2572 22.272 93.6444 23.808 91.5862 24.8832C89.528 25.9584 87.2086 26.496 84.6281 26.496ZM84.6281 18.6624C85.8876 18.6624 86.9321 18.2016 87.7616 17.28C88.6217 16.3277 89.0518 14.976 89.0518 13.225C89.0518 11.4739 88.6217 10.1376 87.7616 9.216C86.9321 8.2944 85.903 7.8336 84.6742 7.8336C83.4454 7.8336 82.4163 8.2944 81.5868 9.216C80.7574 10.1376 80.3427 11.4739 80.3427 13.225C80.3427 15.0067 80.742 16.3584 81.5408 17.28C82.3395 18.2016 83.3686 18.6624 84.6281 18.6624Z" fill="white"/>
<path d="M100.422 13.225C100.422 10.5523 100.898 8.2176 101.85 6.2208C102.833 4.224 104.154 2.688 105.813 1.6128C107.503 0.537599 109.377 0 111.435 0C113.217 0 114.753 0.35328 116.043 1.05984C117.333 1.7664 118.331 2.71872 119.038 3.9168V0.322559H128.07V26.1734H119.038V22.5792C118.331 23.7773 117.318 24.7296 115.997 25.4362C114.706 26.1427 113.186 26.496 111.435 26.496C109.377 26.496 107.503 25.9584 105.813 24.8832C104.154 23.808 102.833 22.272 101.85 20.2752C100.898 18.2477 100.422 15.8976 100.422 13.225ZM119.038 13.225C119.038 11.5661 118.577 10.2605 117.656 9.30816C116.765 8.35584 115.659 7.87968 114.338 7.87968C112.986 7.87968 111.865 8.35584 110.974 9.30816C110.083 10.2298 109.638 11.5354 109.638 13.225C109.638 14.8838 110.083 16.2048 110.974 17.1878C111.865 18.1402 112.986 18.6163 114.338 18.6163C115.659 18.6163 116.765 18.1402 117.656 17.1878C118.577 16.2355 119.038 14.9146 119.038 13.225Z" fill="white"/>
</svg>
